# Blender 4.3.2
# www.blender.org
mtllib beach.mtl
o Beach
v -8.993849 -1.293848 7.993849
v -8.991517 -0.108484 7.991517
v -8.992521 -1.292520 -7.992521
v -9.004147 -0.095855 -8.004147
v 8.992018 -1.292017 7.992018
v 9.005627 -0.094374 8.005627
v 9.002237 -1.302236 -8.002237
v 8.999372 -0.100630 -7.999371
v -8.995000 -1.294999 0.000000
v -8.990353 -0.700000 7.990353
v -8.996553 -0.103448 0.000000
v -8.999002 -0.700000 -7.999002
v 0.000000 -1.290672 -7.990673
v 0.000000 -0.093075 -8.006926
v 9.006763 -0.700000 -8.006763
v 9.006568 -1.306567 0.000000
v 9.003972 -0.096029 0.000000
v 9.004839 -0.700000 8.004839
v 0.000000 -1.299923 7.999924
v 0.000000 -0.105408 7.994593
v -8.989369 -0.700000 0.000000
v -0.000000 -0.700000 -8.014319
v 8.997198 -0.700000 -0.000000
v 0.000000 -0.700000 7.982390
v 0.000000 -1.299767 -0.000000
v -0.000000 -0.110333 -0.000000
vn -1.0000 0.0077 -0.0000
vn -1.0000 -0.0070 0.0003
vn -0.9999 -0.0103 0.0011
vn -1.0000 -0.0007 0.0004
vn -0.0007 -0.0255 -0.9997
vn -0.0010 0.0019 -1.0000
vn 0.0008 0.0123 -0.9999
vn -0.0002 -0.0236 -0.9997
vn 1.0000 0.0040 0.0003
vn 1.0000 0.0005 0.0003
vn 1.0000 -0.0063 -0.0006
vn 1.0000 -0.0029 0.0004
vn -0.0008 0.0040 1.0000
vn -0.0019 -0.0108 0.9999
vn 0.0003 -0.0113 0.9999
vn 0.0001 0.0176 0.9998
vn -0.0002 -1.0000 -0.0007
vn -0.0010 -1.0000 -0.0008
vn 0.0001 -1.0000 0.0009
vn -0.0006 -1.0000 0.0001
vn -0.0004 1.0000 0.0008
vn 0.0002 1.0000 0.0016
vn 0.0002 1.0000 -0.0000
vn -0.0014 1.0000 -0.0004
vt -1.500000 0.350000
vt -1.500000 0.500000
vt 0.500000 0.500000
vt 0.500000 0.350000
vt -1.500000 0.650000
vt 0.500000 0.650000
vt 2.500000 0.650000
vt 2.500000 0.500000
vt 2.500000 0.350000
vt -1.750000 0.350000
vt -1.750000 0.500000
vt -1.750000 0.650000
vt 2.750000 0.650000
vt 2.750000 0.500000
vt 2.750000 0.350000
vt 0.500000 0.500000
vt -1.750000 2.500000
vt 0.500000 2.500000
vt 0.500000 0.500000
vt 2.750000 2.500000
vt 2.750000 -1.500000
vt 0.500000 -1.500000
vt -1.750000 -1.500000
vt 0.500000 0.500000
s 0
usemtl aerial_beach_01_material_Beach
f 1/1/1 10/2/1 21/3/1 9/4/1
f 10/2/2 2/5/2 11/6/2 21/3/2
f 21/3/3 11/6/3 4/7/3 12/8/3
f 9/4/4 21/3/4 12/8/4 3/9/4
f 3/10/5 12/11/5 22/3/5 13/4/5
f 12/11/6 4/12/6 14/6/6 22/3/6
f 22/3/7 14/6/7 8/13/7 15/14/7
f 13/4/8 22/3/8 15/14/8 7/15/8
f 7/9/9 15/8/9 23/16/9 16/4/9
f 15/8/10 8/7/10 17/6/10 23/16/10
f 23/16/11 17/6/11 6/5/11 18/2/11
f 16/4/12 23/16/12 18/2/12 5/1/12
f 5/15/13 18/14/13 24/16/13 19/4/13
f 18/14/14 6/13/14 20/6/14 24/16/14
f 24/16/15 20/6/15 2/12/15 10/11/15
f 19/4/16 24/16/16 10/11/16 1/10/16
f 3/17/17 13/18/17 25/19/17 9/11/17
f 13/18/18 7/20/18 16/14/18 25/19/18
f 25/19/19 16/14/19 5/21/19 19/22/19
f 9/11/20 25/19/20 19/22/20 1/23/20
f 8/20/21 14/18/21 26/24/21 17/14/21
f 14/18/22 4/17/22 11/11/22 26/24/22
f 26/24/23 11/11/23 2/23/23 20/22/23
f 17/14/24 26/24/24 20/22/24 6/21/24
